<svg width="216" height="42" viewBox="0 0 216 42" fill="none" xmlns="http://www.w3.org/2000/svg">
<path d="M59.5663 33.1069C57.4087 33.1376 55.4497 32.62 53.6874 31.5569C51.925 30.493 50.5359 29.071 49.5175 27.2928C48.4996 25.514 47.9904 23.5157 47.9904 21.296C47.9604 19.0456 48.4617 17.032 49.4941 15.2538C50.5273 13.4749 51.9243 12.0616 53.6867 11.0124C55.449 9.96328 57.408 9.42436 59.5656 9.39368C61.2366 9.39368 62.847 9.70516 64.3967 10.3288C65.9464 10.9517 67.3135 11.8408 68.4986 12.9967L66.357 15.4592C65.4458 14.4868 64.3974 13.7411 63.2129 13.2248C62.0278 12.7079 60.8274 12.4645 59.6122 12.4951C58.0325 12.4645 56.6188 12.8446 55.3737 13.635C54.1279 14.4254 53.1255 15.4819 52.3656 16.8045C51.6057 18.1272 51.2265 19.6245 51.2265 21.2967C51.2571 22.9081 51.6364 24.3821 52.3656 25.7201C53.0948 27.058 54.0973 28.1219 55.3737 28.9122C56.6495 29.7026 58.0772 30.0975 59.6569 30.0975C60.9027 30.0668 62.0798 29.8087 63.1889 29.3225C64.298 28.8356 65.3385 28.1219 66.3103 27.1794L68.4073 29.4598C67.1915 30.6144 65.8251 31.5115 64.3054 32.1498C62.7863 32.7881 61.206 33.1076 59.5656 33.1076L59.5663 33.1069Z" fill="black"/>
<path d="M83.0082 33.1524C80.8506 33.1524 78.8837 32.6355 77.106 31.6017C75.3283 30.5679 73.9233 29.1465 72.8908 27.3377C71.8576 25.5282 71.3411 23.5152 71.3411 21.2955C71.3717 19.0758 71.8956 17.0768 72.9134 15.2987C73.9312 13.5205 75.321 12.1065 77.0833 11.058C78.845 10.0088 80.8046 9.48456 82.9622 9.48456C85.1805 9.45388 87.1701 9.97146 88.9325 11.0346C90.6948 12.0985 92.0845 13.5205 93.1024 15.2987C94.1202 17.0775 94.6441 19.0758 94.6747 21.2955C94.6747 23.5152 94.1582 25.5282 93.125 27.3377C92.0919 29.1465 90.6948 30.5679 88.9325 31.6017C87.1708 32.6355 85.1952 33.1524 83.0082 33.1524ZM82.9622 30.1877C84.5419 30.157 85.9704 29.7548 87.2461 28.9791C88.5225 28.2041 89.5324 27.1476 90.2769 25.8096C91.0207 24.4717 91.3933 22.9669 91.3933 21.2948C91.3627 19.6227 90.9761 18.1253 90.2309 16.8027C89.4864 15.4801 88.4846 14.4156 87.2235 13.6105C85.9617 12.8041 84.5566 12.4019 83.0082 12.4019C81.4585 12.4326 80.0535 12.8428 78.793 13.6332C77.5319 14.4236 76.5294 15.4801 75.7849 16.8027C75.041 18.1253 74.6531 19.6227 74.6225 21.2948C74.6225 22.9669 74.9951 24.4717 75.7389 25.8096C76.4834 27.1476 77.4939 28.2041 78.7697 28.9791C80.0455 29.7548 81.4432 30.157 82.9622 30.1877Z" fill="black"/>
<path d="M100.105 32.6973L100.059 9.84979L103.386 9.89581L103.432 32.6973H100.105ZM101.7 5.42703C101.123 5.45704 100.606 5.24427 100.15 4.78872C99.6952 4.33251 99.4819 3.80026 99.5125 3.19197C99.4825 2.55367 99.6952 2.01408 100.15 1.5732C100.606 1.13233 101.123 0.926899 101.7 0.95758C102.369 0.927566 102.916 1.13233 103.34 1.5732C103.766 2.01408 103.994 2.553 104.024 3.19197C104.024 3.80026 103.804 4.33184 103.363 4.78872C102.923 5.24427 102.368 5.45771 101.699 5.42703H101.7Z" fill="black"/>
<path d="M109.875 32.6967L109.921 9.89525L113.248 9.84923V12.5398C115.041 10.4429 117.441 9.39368 120.449 9.39368C122.181 9.42369 123.708 9.80388 125.029 10.5336C126.35 11.2632 127.376 12.2971 128.105 13.635C128.834 14.9723 129.214 16.5077 129.244 18.2412L129.199 32.6974H125.962L125.917 18.9255C125.947 16.8585 125.385 15.2391 124.231 14.0686C123.077 12.898 121.511 12.3284 119.537 12.3584C118.17 12.3584 116.955 12.6626 115.891 13.2702C114.828 13.8785 113.947 14.7449 113.248 15.8701L113.203 32.6974H109.875V32.6967Z" fill="black"/>
<path d="M135.587 42V9.85013H138.914V12.3126C140.889 10.4277 143.349 9.48529 146.296 9.48529C148.453 9.48529 150.398 10.0095 152.129 11.0587C153.861 12.1072 155.236 13.5132 156.254 15.2767C157.271 17.0395 157.781 19.0311 157.781 21.2502C157.781 23.4699 157.272 25.4682 156.254 27.247C155.236 29.0259 153.861 30.4392 152.129 31.4884C150.398 32.5375 148.438 33.0611 146.25 33.0611C144.913 33.0611 143.622 32.8337 142.377 32.3775C141.131 31.9219 139.991 31.2676 138.959 30.4165V41.9993H135.587V42ZM145.978 30.0977C147.588 30.0977 149.031 29.7102 150.307 28.9352C151.583 28.1595 152.593 27.111 153.337 25.7883C154.081 24.4657 154.453 22.9683 154.453 21.2969C154.453 19.6248 154.082 18.1201 153.337 16.7821C152.592 15.4441 151.582 14.3876 150.307 13.6126C149.03 12.8369 147.587 12.4494 145.978 12.4494C144.549 12.4494 143.22 12.7308 141.99 13.2931C140.76 13.8553 139.749 14.6384 138.96 15.6415V26.9509C139.749 27.9234 140.767 28.691 142.012 29.254C143.258 29.8162 144.58 30.097 145.978 30.097V30.0977Z" fill="black"/>
<path d="M163.186 32.6968V0.775025L166.559 0V32.6968H163.186Z" fill="black"/>
<path d="M181.742 33.1533C180.041 33.1533 178.514 32.7805 177.162 32.0354C175.81 31.2911 174.769 30.2573 174.04 28.9353C173.311 27.6127 172.931 26.0699 172.901 24.3064L172.946 9.89563H176.183L176.229 23.6215C176.229 25.6591 176.805 27.2625 177.96 28.4331C179.115 29.6029 180.664 30.2039 182.608 30.2339C183.945 30.2339 185.16 29.9144 186.254 29.2761C187.348 28.6385 188.228 27.7561 188.897 26.6316L188.943 9.89563L192.27 9.84961L192.224 32.6971H188.897V30.0525C187.105 32.1195 184.72 33.1533 181.743 33.1533H181.742Z" fill="black"/>
<path d="M205.998 33.1522C204.115 33.1522 202.345 32.8408 200.689 32.2171C199.033 31.5935 197.597 30.7198 196.383 29.5946L198.433 27.4062C199.496 28.3787 200.666 29.131 201.942 29.6633C203.218 30.1955 204.525 30.461 205.861 30.461C207.685 30.461 209.172 30.0808 210.328 29.3211C211.482 28.5607 212.059 27.573 212.059 26.357C212.059 25.3532 211.717 24.5709 211.034 24.0086C210.351 23.4457 209.28 23.0582 207.821 22.8454L203.857 22.2984C201.578 21.9643 199.884 21.2793 198.775 20.2461C197.666 19.2123 197.112 17.8143 197.112 16.0508C197.112 14.7736 197.477 13.6344 198.206 12.6305C198.935 11.6274 199.945 10.837 201.236 10.2594C202.527 9.68248 204.008 9.39368 205.68 9.39368C207.351 9.39368 208.916 9.63645 210.374 10.1234C211.832 10.6096 213.26 11.37 214.658 12.4038L212.88 14.6835C211.604 13.8018 210.366 13.1561 209.166 12.7453C207.967 12.3351 206.744 12.1296 205.498 12.1296C203.918 12.1296 202.642 12.4791 201.669 13.1788C200.697 13.8778 200.211 14.7902 200.211 15.9148C200.211 16.9486 200.545 17.7316 201.214 18.2639C201.882 18.7961 202.96 19.1677 204.449 19.3811L208.414 19.928C210.693 20.2321 212.402 20.9011 213.542 21.935C214.68 22.9688 215.25 24.3821 215.25 26.1756C215.25 27.4836 214.84 28.6695 214.02 29.7333C213.199 30.7971 212.098 31.6336 210.715 32.2412C209.333 32.8495 207.761 33.1536 205.999 33.1536L205.998 33.1522Z" fill="black"/>
<path fill-rule="evenodd" clip-rule="evenodd" d="M0.0224187 18.009C1.34084 8.80862 8.61216 1.53186 17.8065 0.213902C18.4083 0.127195 18.9602 0.289929 19.4195 0.688118C19.8787 1.08697 20.118 1.61057 20.118 2.21885V18.2964C20.118 19.4123 19.2089 20.3221 18.0937 20.3221H2.02738C1.41883 20.3221 0.89559 20.0833 0.497664 19.6231C0.0990714 19.1635 -0.0628988 18.6106 0.0224187 18.0083V18.009ZM17.8065 41.8216C8.61216 40.503 1.34017 33.2269 0.0224187 24.0265C-0.0635654 23.4242 0.0984049 22.8719 0.497664 22.4124C0.89559 21.9522 1.41883 21.7134 2.02738 21.7134H18.0937C19.2089 21.7134 20.118 22.6232 20.118 23.739V39.816C20.118 40.4249 19.8787 40.9485 19.4195 41.3474C18.9602 41.7456 18.4083 41.9083 17.8065 41.8216Z" fill="url(#paint0_linear_18_88)"/>
<path fill-rule="evenodd" clip-rule="evenodd" d="M21.5131 2.19144V18.2971C21.5131 19.4129 22.4222 20.3227 23.5374 20.3227H39.6044C40.2123 20.3227 40.7355 20.0839 41.1341 19.6237C41.532 19.1641 41.6946 18.6119 41.608 18.0089C40.2896 8.80856 33.0183 1.5318 23.8246 0.213841C23.2227 0.127134 22.6708 0.289868 22.2109 0.688056C21.759 1.08091 21.5204 1.59449 21.5131 2.19077V2.19144ZM21.5131 23.7396V39.8453C21.5204 40.4422 21.759 40.9558 22.2109 41.3479C22.6702 41.7468 23.2221 41.9089 23.8246 41.8222C33.0189 40.5036 40.2909 33.2274 41.608 24.0271C41.6946 23.4248 41.532 22.8726 41.1341 22.413C40.7355 21.9528 40.2123 21.714 39.6044 21.714H23.5374C22.4222 21.714 21.5131 22.6238 21.5131 23.7396Z" fill="url(#paint1_linear_18_88)"/>
<defs>
<linearGradient id="paint0_linear_18_88" x1="27.7346" y1="50.3156" x2="5.5276" y2="0.0893217" gradientUnits="userSpaceOnUse">
<stop stop-color="#FF8400"/>
<stop offset="1" stop-color="#FFAE00"/>
</linearGradient>
<linearGradient id="paint1_linear_18_88" x1="41.1234" y1="42.4818" x2="-5.09783" y2="-92.328" gradientUnits="userSpaceOnUse">
<stop stop-color="#CCCCCC"/>
<stop offset="1" stop-color="#FEFEFE"/>
</linearGradient>
</defs>
</svg>
